<?xml version="1.0" ?><svg data-name="Layer 1" id="Layer_1" viewBox="0 0 24 24" xmlns="http://www.w3.org/2000/svg"><title/><polygon points="15.79 13.66 13.55 12.17 12.45 13.83 16.21 16.34 20.78 10.63 19.22 9.38 15.79 13.66"/><rect height="2" width="16" x="4" y="6"/><rect height="2" width="9" x="4" y="16"/><rect height="2" width="8" x="4" y="11"/><rect height="2" width="2" x="18" y="16"/><path d="M20.44,1H3.56A2.56,2.56,0,0,0,1,3.56V20.44A2.56,2.56,0,0,0,3.56,23H20.44A2.56,2.56,0,0,0,23,20.44V3.56A2.56,2.56,0,0,0,20.44,1ZM21,20.44a.56.56,0,0,1-.56.56H3.56A.56.56,0,0,1,3,20.44V3.56A.56.56,0,0,1,3.56,3H20.44a.56.56,0,0,1,.56.56Z"/></svg>